<svg width="321" height="305" fill="none" xmlns="http://www.w3.org/2000/svg"><path fill-rule="evenodd" clip-rule="evenodd" d="M73.725 11.368C45.43 30.484 27.636 61.145 27.636 90.781c0 12.022-2.551 13.676-7.944 5.15C11.83 83.504 6.124 91.765 1.535 122.23c-4.078 27.057-.16 46.794 13.287 66.952 5.47 8.2 9.944 15.314 9.944 15.812 0 .496-2.583.236-5.74-.578-3.282-.847-5.739-.087-5.739 1.777 0 7.771 15.462 32.265 30.48 48.278 61.496 65.578 165.195 67.596 229.398 4.465 25.076-24.657 46.525-64.09 30.158-55.44-8.887 4.694-10.262 3.419-3.725-3.451 3.341-3.511 9.568-13.917 13.838-23.125 6.265-13.512 7.723-20.688 7.551-37.169-.213-20.145-3.78-38.422-9.092-46.579-2.304-3.538-3.776-3.195-9.659 2.261l-6.939 6.437-1.952-17.843c-3.512-32.149-22.41-60.124-52.293-77.413-7.14-4.13-13.419-7.08-13.953-6.553-.533.527 5.249 10.109 12.854 21.292 19.081 28.063 25.874 47.233 25.874 73.015 0 37.767-12.552 64.966-53.897 116.78-10.986 13.767-22.717 29.491-26.075 34.945-8.776 14.266-7.743 4.57 2.646-24.796 6.721-19.008 8.36-27.553 7.022-36.657-2.017-13.752-21.072-44.155-26.407-42.133-1.969.746-4.804-.804-6.299-3.445-2.402-4.238-3.496-3.813-9.402 3.661-3.676 4.652-12.495 13.781-19.598 20.289-13.972 12.8-25.294 29.25-20.137 29.25 1.731 0 8.28-2.584 14.553-5.746 8.824-4.442 12.696-5.063 17.104-2.731 7.869 4.156 7.148 10.777-2.873 26.377-14.9 23.196-20.295 35.693-22.602 52.339l-2.244 16.175-3.481-12.013c-2.21-7.616-2.709-17.464-1.366-26.916 1.165-8.197 1.756-16.688 1.311-18.872-.442-2.182-8.365-12.838-17.606-23.675C53.389 146.664 42.421 91.9 66.091 45.498c5.645-11.07 14.268-24.627 19.161-30.13 14.03-15.777 8.661-17.639-11.527-4zm101.403 190.408c-.95 4.457-5.631 16.333-10.4 26.397-6.087 12.846-9.252 24.788-10.618 40.068l-1.949 21.767-3.731-12.729c-5.581-19.051-2.663-35.331 11.459-63.91 12.016-24.312 19.099-29.7 15.239-11.593z" fill="url(#paint0_linear_960_538)"/><defs><linearGradient id="paint0_linear_960_538" x1="160.5" y1="0" x2="160.5" y2="305" gradientUnits="userSpaceOnUse"><stop stop-color="#F4B70F"/><stop offset="1" stop-color="#EE6A21"/></linearGradient></defs></svg>