<svg width="117" height="186" fill="none" xmlns="http://www.w3.org/2000/svg"><path fill-rule="evenodd" clip-rule="evenodd" d="M44.556 7.656C27.457 19.232 16.702 37.8 16.702 55.749c0 7.28-1.542 8.282-4.8 3.119-4.753-7.527-8.2-2.524-10.974 15.926-2.465 16.386-.097 28.339 8.03 40.547 3.306 4.965 6.01 9.274 6.01 9.576 0 .3-1.561.142-3.469-.35-1.984-.513-3.469-.053-3.469 1.076 0 4.706 9.345 19.539 18.421 29.237 37.166 39.715 99.838 40.936 138.639 2.704 15.155-14.932 28.118-38.813 18.227-33.575-5.371 2.843-6.202 2.071-2.251-2.09 2.019-2.126 5.782-8.428 8.363-14.004 3.786-8.183 4.667-12.53 4.563-22.51-.128-12.2-2.284-23.268-5.495-28.208-1.392-2.143-2.282-1.936-5.837 1.369l-4.194 3.898-1.18-10.806c-2.122-19.47-13.543-36.411-31.603-46.881-4.316-2.502-8.11-4.288-8.433-3.97-.323.32 3.172 6.123 7.768 12.895 11.532 16.996 15.638 28.605 15.638 44.219 0 22.872-7.587 39.344-32.574 70.723-6.639 8.337-13.729 17.86-15.758 21.163-5.304 8.639-4.68 2.767 1.599-15.017 4.062-11.512 5.052-16.687 4.244-22.2-1.22-8.328-12.736-26.74-15.96-25.516-1.19.452-2.903-.487-3.807-2.086-1.452-2.567-2.113-2.31-5.682 2.217-2.222 2.817-7.551 8.346-11.844 12.287-8.445 7.752-15.287 17.714-12.17 17.714 1.046 0 5.004-1.565 8.795-3.48 5.333-2.69 7.673-3.066 10.337-1.654 4.756 2.517 4.32 6.527-1.736 15.975-9.005 14.047-12.266 21.615-13.66 31.696l-1.356 9.796-2.104-7.276c-1.336-4.612-1.638-10.576-.826-16.3.704-4.964 1.062-10.106.793-11.429-.267-1.321-5.056-7.774-10.64-14.337-26.04-30.606-32.67-63.77-18.364-91.872 3.411-6.704 8.623-14.914 11.58-18.247 8.48-9.555 5.235-10.682-6.967-2.422zm61.284 115.312c-.574 2.699-3.402 9.891-6.285 15.986-3.679 7.78-5.592 15.012-6.417 24.265l-1.178 13.183-2.254-7.709c-3.374-11.538-1.61-21.397 6.925-38.704 7.262-14.724 11.542-17.987 9.209-7.021z" fill="url(#paint0_linear_960_492)"/><defs><linearGradient id="paint0_linear_960_492" x1="97" y1=".771" x2="97" y2="185.481" gradientUnits="userSpaceOnUse"><stop stop-color="#F4B70F"/><stop offset="1" stop-color="#EE6A21"/></linearGradient></defs></svg>