<svg width="63" height="60" fill="none" xmlns="http://www.w3.org/2000/svg"><path fill-rule="evenodd" clip-rule="evenodd" d="M14.47 2.236C8.915 5.996 5.423 12.03 5.423 17.86c0 2.364-.5 2.69-1.56 1.013-1.542-2.445-2.662-.82-3.563 5.173-.8 5.323-.031 9.206 2.608 13.171 1.074 1.613 1.952 3.013 1.952 3.11 0 .098-.507.047-1.127-.113-.644-.167-1.126-.017-1.126.35 0 1.528 3.034 6.347 5.982 9.497 12.07 12.9 32.421 13.297 45.022.878 4.921-4.85 9.13-12.608 5.919-10.906-1.745.924-2.014.673-.731-.679.655-.69 1.878-2.738 2.716-4.55 1.23-2.657 1.515-4.069 1.481-7.311-.041-3.963-.741-7.558-1.784-9.163-.452-.696-.741-.629-1.896.445l-1.362 1.266-.383-3.51C56.883 10.205 53.174 4.702 47.31 1.3 45.908.49 44.676-.092 44.571.012c-.105.104 1.03 1.989 2.523 4.189 3.745 5.52 5.078 9.291 5.078 14.363 0 7.43-2.464 12.78-10.578 22.973-2.156 2.709-4.459 5.802-5.118 6.875-1.722 2.806-1.52.899.52-4.878 1.319-3.74 1.64-5.42 1.378-7.211-.396-2.706-4.136-8.687-5.183-8.289-.386.147-.943-.158-1.236-.677-.472-.834-.686-.75-1.845.72-.722.915-2.453 2.71-3.847 3.99-2.742 2.519-4.964 5.755-3.952 5.755.34 0 1.625-.508 2.856-1.13 1.732-.874 2.492-.996 3.357-.538 1.544.818 1.403 2.12-.564 5.19-2.924 4.563-3.983 7.021-4.436 10.295l-.44 3.182-.683-2.363c-.434-1.498-.532-3.435-.268-5.295.228-1.612.344-3.282.257-3.712-.087-.43-1.642-2.526-3.456-4.657-8.456-9.942-10.608-20.715-5.963-29.844 1.108-2.177 2.8-4.844 3.76-5.927 2.754-3.104 1.7-3.47-2.262-.787zm19.9 37.458c-.186.876-1.104 3.213-2.04 5.192-1.195 2.528-1.816 4.877-2.084 7.883l-.383 4.282-.732-2.504c-1.095-3.748-.523-6.95 2.25-12.573 2.357-4.782 3.747-5.842 2.99-2.28z" fill="url(#paint0_linear_960_290)"/><defs><linearGradient id="paint0_linear_960_290" x1="31.5" y1="0" x2="31.5" y2="60" gradientUnits="userSpaceOnUse"><stop stop-color="#F4B70F"/><stop offset="1" stop-color="#EE6A21"/></linearGradient></defs></svg>