<svg width="26" height="21" fill="none" xmlns="http://www.w3.org/2000/svg"><path fill-rule="evenodd" clip-rule="evenodd" d="M22.71.803c.31-.12.652-.162.986-.12.335.041.652.165.917.359.266.193.47.449.592.74.123.291.158.607.103.915L22.45 18.722c-.278 1.546-2.113 2.432-3.647 1.662-1.283-.644-3.189-1.636-4.903-2.672-.857-.518-3.483-2.178-3.16-3.36.277-1.01 4.689-4.804 7.21-7.06.99-.887.538-1.398-.63-.583-2.903 2.025-7.56 5.103-9.1 5.97-1.36.764-2.068.894-2.915.764-1.545-.238-2.978-.606-4.148-1.054-1.58-.606-1.504-2.614-.001-3.199L22.709.803z" fill="#fff"/></svg>