<svg width="29" height="18" fill="none" xmlns="http://www.w3.org/2000/svg"><path fill-rule="evenodd" clip-rule="evenodd" d="M28.106 1.512c.213-.681 0-1.176-.942-1.176h-3.13c-.79 0-1.155.433-1.367.897 0 0-1.611 3.961-3.86 6.53-.73.742-1.064.99-1.459.99-.213 0-.486-.248-.486-.928V1.48c0-.804-.243-1.176-.912-1.176h-4.924c-.486 0-.79.372-.79.743 0 .774 1.124.96 1.246 3.126v4.706c0 1.021-.18 1.208-.578 1.208-1.063 0-3.647-3.992-5.196-8.541C5.407.645 5.1.304 4.31.304H1.15C.237.304.085.737.085 1.202c0 .835 1.063 5.044 4.954 10.614 2.583 3.804 6.26 5.849 9.573 5.849 2.006 0 2.249-.464 2.249-1.238v-2.878c0-.928.182-1.083.82-1.083.456 0 1.277.247 3.13 2.073 2.128 2.166 2.492 3.157 3.678 3.157h3.13c.912 0 1.337-.465 1.094-1.362-.273-.897-1.307-2.197-2.644-3.744-.73-.866-1.823-1.825-2.158-2.29-.455-.619-.334-.866 0-1.423-.03 0 3.8-5.509 4.194-7.367" fill="#fff"/></svg>