<svg width="22" height="22" fill="none" xmlns="http://www.w3.org/2000/svg"><path d="M.336 21.667l1.442-5.3A10.618 10.618 0 01.332 11C.332 5.109 5.108.333 10.999.333 16.889.333 21.665 5.11 21.665 11S16.89 21.667 11 21.667a10.617 10.617 0 01-5.366-1.446L.336 21.667zM7.15 5.995a1.025 1.025 0 00-.396.107 1.38 1.38 0 00-.313.243c-.128.12-.2.225-.279.326a2.911 2.911 0 00-.602 1.79c.002.523.138 1.032.352 1.507.436.963 1.154 1.981 2.102 2.925.228.227.451.456.691.668a10.078 10.078 0 004.096 2.182l.607.093c.198.01.395-.004.593-.014.311-.016.614-.1.889-.246.14-.072.276-.15.408-.235 0 0 .046-.03.134-.096.144-.106.232-.182.352-.307.088-.092.165-.2.224-.322.083-.174.166-.506.2-.782.026-.211.018-.326.015-.398-.004-.114-.099-.232-.203-.283l-.62-.278s-.928-.404-1.495-.662a.532.532 0 00-.188-.044.514.514 0 00-.404.135v-.002c-.005 0-.076.061-.848.995a.373.373 0 01-.392.14 1.514 1.514 0 01-.204-.071c-.132-.056-.178-.077-.269-.117l-.005-.002a6.413 6.413 0 01-1.675-1.066c-.134-.118-.259-.246-.387-.37a6.714 6.714 0 01-1.088-1.352l-.063-.101a.985.985 0 01-.109-.219c-.04-.157.065-.283.065-.283s.26-.283.38-.437c.1-.128.194-.26.28-.398.127-.202.166-.41.1-.571a88.797 88.797 0 00-.926-2.178c-.063-.142-.25-.245-.42-.265a3.23 3.23 0 00-.172-.017 3.61 3.61 0 00-.43.004v.001z" fill="#fff"/></svg>